<svg width="1658" height="1556" viewBox="0 0 1658 1556" fill="none" xmlns="http://www.w3.org/2000/svg">
<path fill-rule="evenodd" clip-rule="evenodd" d="M231.587 4.41593C227.339 7.28467 218.538 9.66414 212.028 9.71049C205.519 9.75169 190.6 14.4231 178.873 20.0885C167.147 25.7538 154.514 30.3892 150.796 30.3892C147.078 30.3892 144.04 32.7068 144.04 35.5395C144.04 38.3722 141.145 40.7053 137.602 40.7259C123.296 40.8135 71.004 89.5668 47.5978 124.641C23.6458 160.539 17.5328 175.47 5.51304 227.462C-1.32085 257.031 -1.94913 324.037 4.45732 340.456C6.9962 346.961 12.1358 362.716 15.8746 375.463C28.7338 419.241 52.1709 454.073 92.1906 488.884C121.493 514.373 123.44 517.469 123.44 538.528C123.44 550.879 119.109 570.811 113.815 582.821C104.885 603.068 98.6073 623.396 87.1746 669.033C79.7279 698.787 76.9264 719.842 70.9165 791.39C65.2722 858.536 67.9089 908.576 81.5561 993.506C95.4299 1079.81 101.841 1096.74 133.251 1129.95C146.826 1144.31 164.356 1166.41 172.215 1179.07C267.884 1333.28 347.388 1409.45 479.667 1473.63C605.566 1534.71 695.741 1555.67 834.123 1555.99C902.508 1556.16 929.653 1553.98 973.169 1544.84C1132.95 1511.29 1267.82 1440.73 1373.25 1335.53C1431.8 1277.1 1488.11 1197.15 1512.08 1138.4C1525.34 1105.91 1528.44 1102.05 1543.75 1099.17C1565.07 1095.14 1566.4 1091.63 1584.25 992.568C1596.18 926.33 1598.41 900.042 1598.11 828.694C1597.91 781.955 1594.99 729.808 1591.61 712.811C1576.34 635.973 1559.93 581.148 1541.73 546.264C1530.87 525.457 1532.84 512.004 1547.93 503.928C1567.49 493.463 1610.41 444.73 1624.41 417.104C1631.06 403.975 1641.65 376.277 1647.95 355.557C1668.71 287.196 1656.37 187.084 1619.66 126.078C1589.69 76.2737 1547.08 42.2195 1480.43 14.799C1449.9 2.24247 1356.84 -5.14829 1347.45 4.24081C1344.4 7.28982 1337.7 9.78774 1332.56 9.78774C1327.42 9.78774 1319.19 11.8324 1314.28 14.3355C1309.36 16.8386 1298.38 21.9838 1289.89 25.7693C1252.41 42.4616 1218.71 69.434 1200.46 97.3438C1175.5 135.498 1157.46 142.373 1132.82 123.096C1125.73 117.554 1116.02 112.97 1111.23 112.908C1106.44 112.846 1101.09 110.477 1099.34 107.645C1097.59 104.812 1090.64 102.494 1083.89 102.494C1077.15 102.494 1070.36 100.444 1068.81 97.9361C1067.26 95.433 1059.59 92.0956 1051.77 90.5299C1043.94 88.959 1027.11 85.055 1014.37 81.8515C942.826 63.8716 784.231 58.0929 718.251 71.0667C701.256 74.4093 678.648 78.4574 668.008 80.0643C657.369 81.6661 647.383 85.055 645.818 87.589C644.252 90.123 636.29 92.1934 628.128 92.1934C619.965 92.1934 611.854 94.5111 610.103 97.3438C608.352 100.176 602.389 102.494 596.853 102.494C591.317 102.494 582.763 104.544 577.844 107.052C515.176 139.015 503.712 143.105 491.888 137.717C485.234 134.684 474.45 121.829 467.936 109.154C449.025 72.3903 405.576 38.3156 347.46 14.6806C320.078 3.54552 242.994 -3.28386 231.587 4.41593ZM769.749 136.636C624.816 152.241 463.641 220.37 370.634 305.341C337.397 335.707 285.888 393.623 260.174 429.542C214.238 493.71 159.536 634.912 148.438 717.962C141.382 770.737 140.754 973.095 147.603 985.337C152.094 993.367 155.117 991.255 171.942 968.331C194.06 938.196 218.296 919.15 229.193 923.332C239.523 927.298 239.245 991.868 228.631 1052.55C224.187 1077.94 221.885 1105.81 223.512 1114.47C227.637 1136.47 299.813 1230.85 346.244 1274.95C425.099 1349.86 515.644 1406.14 604.953 1435.77C778.726 1493.42 977.665 1481.07 1132.82 1402.98C1249.56 1344.22 1364.62 1239.39 1414.18 1146.63L1434.08 1109.39V1020.99C1434.08 972.369 1435.78 930.883 1437.86 928.797C1446.41 920.216 1475.56 935.25 1490.64 956.016C1499.19 967.79 1507.71 977.565 1509.57 977.74C1515.88 978.328 1520.5 877.896 1517.01 815.818C1512.85 741.87 1504.38 691.556 1485.86 630.828C1420.45 416.362 1280.33 267.027 1060.45 177.437C992.667 149.81 842.754 128.776 769.749 136.636ZM545.73 550.251C474.79 571.964 398.634 651.017 344.462 759.165C323.271 801.475 318.131 817.152 315.664 846.988C308.022 939.453 364.156 1010.55 445.132 1010.97C499.911 1011.25 541.677 983.076 585.528 916.25C595.751 900.671 619.631 868.223 638.598 844.145C657.565 820.067 676.681 793.311 681.089 784.69C695.493 756.481 706.581 703.891 703.563 678.052C693.217 589.332 617.73 528.212 545.73 550.251ZM1038.2 552.671C963.4 580.514 933.881 664.887 964.657 762.878C974.529 794.326 984.504 813.521 1002.64 836.018C1016.18 852.793 1046.94 892.142 1071.02 923.451C1107.92 971.447 1119.4 982.731 1144.14 995.35C1211.96 1029.94 1287.02 1002.81 1323.06 930.671C1348.75 879.25 1342.91 825.831 1302.92 746.603C1283.7 708.526 1230.51 637.039 1197.3 604.654C1146.07 554.685 1085.74 534.975 1038.2 552.671ZM535.806 698.056C523.74 713.393 522.385 726.357 531.12 742.766C545.431 769.63 569.872 774.116 590.348 753.638C601.385 742.601 603.094 737.229 600.55 721.572C594.808 686.169 556.184 672.139 535.806 698.056ZM1066.76 696.402C1052.56 711.529 1052.34 735.643 1066.24 753.319C1078.4 768.77 1094.26 770.645 1111.4 758.644C1127.51 747.355 1133.8 728.942 1127.34 711.941C1116.49 683.403 1086.26 675.646 1066.76 696.402ZM659.027 1039.86C637.707 1061.18 650.365 1104.21 687.485 1136.56C719.023 1164.05 801.215 1204.85 824.858 1204.75C850.026 1204.64 937.347 1159.21 967.144 1130.71C994.289 1104.76 1004.07 1087.11 1004.07 1064.09C1004.07 1027.82 977.341 1022.14 882.094 1038.16C832.717 1046.47 826.48 1046.47 775.816 1038.27C702.379 1026.38 672.092 1026.79 659.027 1039.86ZM562.209 1195.4C544.617 1212.99 566.577 1264.4 605.319 1296.34C636.208 1321.8 691.549 1348.67 729.802 1356.78C774.92 1366.34 874.07 1366.37 923.89 1356.84C996.849 1342.87 1070.67 1292.9 1093.66 1241.9C1105.7 1215.21 1101.77 1194.37 1084.69 1194.37C1078.16 1194.37 1056.23 1206.93 1035.96 1222.29C970.873 1271.61 902.601 1288.34 853.332 1267.06C828.834 1256.48 828.721 1256.48 812.133 1266.59C777.134 1287.94 701.086 1275.8 653.012 1241.19C571.799 1182.73 573.848 1183.76 562.209 1195.4Z" fill="black"/>
</svg>
